<svg width="230" height="319" viewBox="0 0 230 319" fill="none" xmlns="http://www.w3.org/2000/svg">
<rect width="230" height="319" rx="10" fill="white"/>
<rect x="24" y="34" width="182" height="20" rx="10" fill="#D9D9D9"/>
<rect x="24" y="78" width="182" height="10" rx="5" fill="#D9D9D9"/>
<rect x="24" y="93" width="182" height="10" rx="5" fill="#D9D9D9"/>
<rect x="24" y="138" width="182" height="10" rx="5" fill="#D9D9D9"/>
<rect x="24" y="153" width="100" height="10" rx="5" fill="#D9D9D9"/>
<rect x="24" y="108" width="182" height="10" rx="5" fill="#D9D9D9"/>
<rect x="24" y="123" width="182" height="10" rx="5" fill="#D9D9D9"/>
<rect x="24" y="175" width="182" height="10" rx="5" fill="#D9D9D9"/>
<rect x="24" y="190" width="182" height="10" rx="5" fill="#D9D9D9"/>
<rect x="24" y="235" width="50" height="10" rx="5" fill="#D9D9D9"/>
<rect x="24" y="205" width="182" height="10" rx="5" fill="#D9D9D9"/>
<rect x="24" y="220" width="182" height="10" rx="5" fill="#D9D9D9"/>
<rect x="24" y="257" width="182" height="10" rx="5" fill="#D9D9D9"/>
<rect x="24" y="272" width="182" height="10" rx="5" fill="#D9D9D9"/>
</svg>
